<?xml version="1.0" standalone="no"?>
<!DOCTYPE svg PUBLIC "-//W3C//DTD SVG 20010904//EN"
 "http://www.w3.org/TR/2001/REC-SVG-20010904/DTD/svg10.dtd">
<svg version="1.0" xmlns="http://www.w3.org/2000/svg"
 width="600.000000pt" height="600.000000pt" viewBox="0 0 600.000000 600.000000"
 preserveAspectRatio="xMidYMid meet">
<metadata>
Created by potrace 1.14, written by Peter Selinger 2001-2017
</metadata>
<g transform="translate(0.000000,600.000000) scale(0.100000,-0.100000)"
fill="#000000" stroke="none">
<path d="M2798 5995 c-1 -1 -37 -5 -78 -9 -41 -3 -86 -8 -100 -11 -14 -2 -43
-6 -65 -9 -136 -18 -406 -81 -485 -113 -8 -4 -17 -7 -20 -8 -3 0 -30 -9 -60
-19 -58 -20 -75 -27 -230 -95 -107 -48 -333 -169 -338 -182 -2 -5 -8 -9 -13
-9 -9 0 -110 -65 -144 -92 -5 -4 -39 -29 -75 -55 -36 -26 -70 -52 -76 -58 -6
-5 -33 -28 -59 -50 -72 -59 -273 -261 -335 -335 -30 -36 -58 -66 -62 -68 -5
-2 -8 -10 -8 -17 0 -7 -4 -15 -9 -17 -7 -3 -80 -98 -119 -154 -50 -75 -82
-127 -82 -135 0 -5 -4 -9 -9 -9 -5 0 -14 -15 -22 -32 -7 -18 -15 -35 -19 -38
-3 -3 -17 -27 -30 -55 -14 -27 -28 -52 -31 -55 -4 -3 -10 -16 -14 -30 -4 -14
-13 -32 -20 -40 -8 -8 -14 -18 -14 -23 0 -4 -8 -21 -16 -37 -9 -17 -13 -30 -9
-30 4 0 2 -6 -4 -12 -6 -7 -22 -44 -37 -83 -15 -38 -31 -79 -36 -90 -16 -35
-75 -228 -84 -275 -2 -8 -10 -42 -18 -75 -14 -54 -20 -87 -33 -165 -3 -14 -6
-36 -9 -50 -5 -28 -12 -80 -24 -190 -12 -101 -6 -526 8 -625 24 -166 37 -235
70 -370 28 -113 71 -255 90 -300 5 -11 26 -63 46 -115 39 -98 136 -294 180
-365 14 -22 31 -51 38 -65 16 -34 85 -139 111 -171 11 -14 28 -36 36 -49 17
-26 48 -66 105 -136 69 -85 326 -337 415 -407 47 -37 92 -72 99 -79 30 -26
265 -178 274 -178 6 0 18 -6 26 -14 23 -21 241 -128 353 -175 253 -104 537
-174 853 -211 73 -8 565 -6 600 3 11 3 49 8 85 12 36 4 67 8 70 10 3 2 28 6
55 9 134 18 491 122 623 182 29 13 55 24 57 24 14 0 196 93 298 152 326 190
603 426 840 718 108 134 240 337 305 470 9 19 21 38 25 41 5 3 9 12 11 20 1 8
17 42 34 76 18 35 32 65 33 68 0 6 25 68 44 110 13 29 77 220 81 240 1 6 11
42 22 80 17 60 38 150 57 245 3 14 8 49 11 79 3 30 7 58 9 61 18 29 28 540 12
680 -8 76 -17 145 -23 180 -10 55 -33 176 -37 195 -16 68 -49 189 -58 212 -6
16 -12 35 -14 43 -11 49 -78 223 -131 338 -38 83 -45 96 -94 187 -53 97 -54
99 -67 113 -7 7 -13 19 -13 25 -1 7 -14 28 -30 47 -17 19 -30 38 -30 43 0 8
-122 173 -164 221 -15 16 -26 33 -26 37 0 8 -298 309 -343 347 -15 12 -32 22
-37 22 -6 0 -10 4 -10 9 0 5 -37 36 -82 70 -46 33 -96 71 -112 83 -16 13 -34
25 -40 27 -6 2 -36 21 -66 42 -69 46 -111 70 -230 131 -52 26 -100 52 -107 58
-7 5 -17 10 -23 10 -6 0 -28 9 -49 19 -20 11 -64 29 -97 41 -146 53 -201 72
-223 76 -14 3 -28 7 -33 10 -29 18 -291 74 -438 94 -41 6 -88 13 -105 16 -33
6 -501 14 -507 9z"/>
</g>
</svg>
